<svg width="35" height="39" viewBox="0 0 35 39" fill="none" xmlns="http://www.w3.org/2000/svg">
<path d="M26.1 14.1C25.8 14.1 25.6 14.1 25.3 14.1C26.2 12.7 26.7 11.1 26.7 9.29999C26.7 4.39999 22.7 0.399994 17.8 0.399994C12.9 0.399994 8.90004 4.39999 8.90004 9.29999C8.90004 11.1 9.40004 12.7 10.3 14.1C10 14.1 9.80004 14.1 9.50004 14.1C4.60004 14.1 0.600037 18.1 0.600037 23C0.600037 27.9 4.60004 31.9 9.50004 31.9C12.6 31.9 15.3 30.3 16.9 28C16.7 31.4 16.4 34.8 15.4 38.1C17 38.1 18.6 38.1 20.1 38.1C19.2 34.8 18.9 31.4 18.6 28C20.2 30.4 22.9 31.9 26 31.9C30.9 31.9 34.9 27.9 34.9 23C34.9 18.1 31 14.1 26.1 14.1Z" fill="#B1C3E7"/>
</svg>
