<svg width="1000" height="1000" viewBox="0 0 1000 1000" fill="none" xmlns="http://www.w3.org/2000/svg">
<mask id="mask0_28_239" style="mask-type:alpha" maskUnits="userSpaceOnUse" x="0" y="0" width="1000" height="1000">
<g clip-path="url(#clip0_28_239)">
<path d="M498.37 465.853C498.37 482.306 485.029 495.644 468.573 495.644C452.116 495.644 438.776 482.306 438.776 465.853C438.776 449.401 452.116 436.064 468.573 436.064C485.029 436.064 498.37 449.401 498.37 465.853Z" fill="#FF9A99"/>
<path d="M563.808 530.902C563.808 547.129 550.649 560.284 534.418 560.284C518.186 560.284 505.027 547.129 505.027 530.902C505.027 514.674 518.186 501.519 534.418 501.519C550.649 501.519 563.808 514.674 563.808 530.902Z" fill="#FF9A99"/>
<path d="M431.25 465.44C431.25 480.839 418.762 493.323 403.358 493.323C387.955 493.323 375.467 480.839 375.467 465.44C375.467 450.039 387.955 437.555 403.358 437.555C418.762 437.555 431.25 450.039 431.25 465.44Z" fill="#FF9A99"/>
<path d="M431.337 596.65C431.337 611.987 418.9 624.421 403.559 624.421C388.216 624.421 375.779 611.987 375.779 596.65C375.779 581.312 388.216 568.878 403.559 568.878C418.9 568.878 431.337 581.312 431.337 596.65Z" fill="#FF9A99"/>
<path d="M627.33 465.839C627.33 480.949 615.079 493.196 599.966 493.196C584.855 493.196 572.603 480.949 572.603 465.839C572.603 450.732 584.855 438.484 599.966 438.484C615.079 438.484 627.33 450.732 627.33 465.839Z" fill="#FF9A99"/>
<path d="M561.731 400.281C561.731 415.381 549.486 427.622 534.383 427.622C519.28 427.622 507.036 415.381 507.036 400.281C507.036 385.182 519.28 372.942 534.383 372.942C549.486 372.942 561.731 385.182 561.731 400.281Z" fill="#FF9A99"/>
<path d="M496.353 399.809C496.353 415.027 484.013 427.364 468.791 427.364C453.569 427.364 441.229 415.027 441.229 399.809C441.229 384.591 453.569 372.254 468.791 372.254C484.013 372.254 496.353 384.591 496.353 399.809Z" fill="#FF9A99"/>
<path d="M626.504 596.648C626.504 611.615 614.369 623.749 599.397 623.749C584.426 623.749 572.29 611.615 572.29 596.648C572.29 581.681 584.426 569.547 599.397 569.547C614.369 569.547 626.504 581.681 626.504 596.648Z" fill="#FF9A99"/>
<path d="M429.731 399.868C429.731 414.451 417.905 426.273 403.318 426.273C388.731 426.273 376.905 414.451 376.905 399.868C376.905 385.283 388.731 373.46 403.318 373.46C417.905 373.46 429.731 385.283 429.731 399.868Z" fill="#FF9A99"/>
<path d="M363.641 465.462C363.641 479.784 352.027 491.395 337.702 491.395C323.376 491.395 311.763 479.784 311.763 465.462C311.763 451.14 323.376 439.53 337.702 439.53C352.027 439.53 363.641 451.14 363.641 465.462Z" fill="#FF9A99"/>
<path d="M625.849 399.844C625.849 414.326 614.106 426.065 599.621 426.065C585.135 426.065 573.392 414.326 573.392 399.844C573.392 385.362 585.135 373.623 599.621 373.623C614.106 373.623 625.849 385.362 625.849 399.844Z" fill="#FF9A99"/>
<path d="M363.805 530.738C363.805 545.238 352.048 556.992 337.544 556.992C323.04 556.992 311.281 545.238 311.281 530.738C311.281 516.237 323.04 504.482 337.544 504.482C352.048 504.482 363.805 516.237 363.805 530.738Z" fill="#FF9A99"/>
<path d="M429.415 661.924C429.415 676.261 417.789 687.884 403.448 687.884C389.107 687.884 377.481 676.261 377.481 661.924C377.481 647.586 389.107 635.963 403.448 635.963C417.789 635.963 429.415 647.586 429.415 661.924Z" fill="#FF9A99"/>
<path d="M363.814 596.34C363.814 610.678 352.189 622.301 337.847 622.301C323.507 622.301 311.881 610.678 311.881 596.34C311.881 582.003 323.507 570.38 337.847 570.38C352.189 570.38 363.814 582.003 363.814 596.34Z" fill="#FF9A99"/>
<path d="M690.626 465.309C690.626 479.427 679.178 490.874 665.054 490.874C650.931 490.874 639.482 479.427 639.482 465.309C639.482 451.189 650.931 439.743 665.054 439.743C679.178 439.743 690.626 451.189 690.626 465.309Z" fill="#FF9A99"/>
<path d="M559.437 334.062C559.437 348.185 547.984 359.636 533.857 359.636C519.729 359.636 508.276 348.185 508.276 334.062C508.276 319.937 519.729 308.488 533.857 308.488C547.984 308.488 559.437 319.937 559.437 334.062Z" fill="#FF9A99"/>
<path d="M362.578 399.864C362.578 413.585 351.454 424.708 337.728 424.708C324.004 424.708 312.878 413.585 312.878 399.864C312.878 386.144 324.004 375.02 337.728 375.02C351.454 375.02 362.578 386.144 362.578 399.864Z" fill="#FF9A99"/>
<path d="M625.122 662.19C625.122 676.331 613.656 687.795 599.51 687.795C585.365 687.795 573.899 676.331 573.899 662.19C573.899 648.049 585.365 636.585 599.51 636.585C613.656 636.585 625.122 648.049 625.122 662.19Z" fill="#FF9A99"/>
<path d="M690.905 531.313C690.905 545.343 679.529 556.716 665.494 556.716C651.46 556.716 640.085 545.343 640.085 531.313C640.085 517.282 651.46 505.909 665.494 505.909C679.529 505.909 690.905 517.282 690.905 531.313Z" fill="#FF9A99"/>
<path d="M494.01 334.023C494.01 347.941 482.723 359.225 468.8 359.225C454.879 359.225 443.592 347.941 443.592 334.023C443.592 320.104 454.879 308.82 468.8 308.82C482.723 308.82 494.01 320.104 494.01 334.023Z" fill="#FF9A99"/>
<path d="M427.76 334.093C427.76 347.61 416.8 358.567 403.279 358.567C389.758 358.567 378.797 347.61 378.797 334.093C378.797 320.576 389.758 309.617 403.279 309.617C416.8 309.617 427.76 320.576 427.76 334.093Z" fill="#FF9A99"/>
<path d="M362.719 662.219C362.719 675.869 351.652 686.936 337.997 686.936C324.344 686.936 313.274 675.869 313.274 662.219C313.274 648.568 324.344 637.502 337.997 637.502C351.652 637.502 362.719 648.568 362.719 662.219Z" fill="#FF9A99"/>
<path d="M690.09 399.799C690.09 413.535 678.952 424.669 665.213 424.669C651.474 424.669 640.337 413.535 640.337 399.799C640.337 386.064 651.474 374.929 665.213 374.929C678.952 374.929 690.09 386.064 690.09 399.799Z" fill="#FF9A99"/>
<path d="M624.489 334.217C624.489 347.953 613.352 359.087 599.613 359.087C585.874 359.087 574.736 347.953 574.736 334.217C574.736 320.482 585.874 309.347 599.613 309.347C613.352 309.347 624.489 320.482 624.489 334.217Z" fill="#FF9A99"/>
<path d="M296.383 530.789C296.383 544.09 285.596 554.874 272.292 554.874C258.987 554.874 248.2 544.09 248.2 530.789C248.2 517.487 258.987 506.704 272.292 506.704C285.596 506.704 296.383 517.487 296.383 530.789Z" fill="#FF9A99"/>
<path d="M558.92 727.517C558.92 741.095 547.91 752.102 534.329 752.102C520.746 752.102 509.736 741.095 509.736 727.517C509.736 713.938 520.746 702.931 534.329 702.931C547.91 702.931 558.92 713.938 558.92 727.517Z" fill="#FF9A99"/>
<path d="M295.807 465.231C295.807 478.313 285.199 488.918 272.114 488.918C259.03 488.918 248.422 478.313 248.422 465.231C248.422 452.149 259.03 441.544 272.114 441.544C285.199 441.544 295.807 452.149 295.807 465.231Z" fill="#FF9A99"/>
<path d="M296.446 596.71C296.446 609.958 285.703 620.698 272.452 620.698C259.2 620.698 248.457 609.958 248.457 596.71C248.457 583.462 259.2 572.722 272.452 572.722C285.703 572.722 296.446 583.462 296.446 596.71Z" fill="#FF9A99"/>
<path d="M427.593 726.843C427.593 740.057 416.878 750.769 403.662 750.769C390.446 750.769 379.731 740.057 379.731 726.843C379.731 713.63 390.446 702.918 403.662 702.918C416.878 702.918 427.593 713.63 427.593 726.843Z" fill="#FF9A99"/>
<path d="M360.93 334.263C360.93 347.034 350.575 357.388 337.801 357.388C325.027 357.388 314.672 347.034 314.672 334.263C314.672 321.494 325.027 311.141 337.801 311.141C350.575 311.141 360.93 321.494 360.93 334.263Z" fill="#FF9A99"/>
<path d="M689.341 661.798C689.341 674.804 678.793 685.349 665.782 685.349C652.773 685.349 642.226 674.804 642.226 661.798C642.226 648.79 652.773 638.246 665.782 638.246C678.793 638.246 689.341 648.79 689.341 661.798Z" fill="#FF9A99"/>
<path d="M295.372 400.09C295.372 412.684 285.16 422.894 272.563 422.894C259.965 422.894 249.753 412.684 249.753 400.09C249.753 387.496 259.965 377.286 272.563 377.286C285.16 377.286 295.372 387.496 295.372 400.09Z" fill="#FF9A99"/>
<path d="M491.733 269.589C491.733 282.24 481.474 292.497 468.819 292.497C456.164 292.497 445.904 282.24 445.904 269.589C445.904 256.937 456.164 246.68 468.819 246.68C481.474 246.68 491.733 256.937 491.733 269.589Z" fill="#FF9A99"/>
<path d="M753.825 531.384C753.825 544.098 743.516 554.404 730.801 554.404C718.083 554.404 707.774 544.098 707.774 531.384C707.774 518.67 718.083 508.364 730.801 508.364C743.516 508.364 753.825 518.67 753.825 531.384Z" fill="#FF9A99"/>
<path d="M688.571 334.679C688.571 347.299 678.339 357.528 665.717 357.528C653.094 357.528 642.862 347.299 642.862 334.679C642.862 322.061 653.094 311.832 665.717 311.832C678.339 311.832 688.571 322.061 688.571 334.679Z" fill="#FF9A99"/>
<path d="M425.463 269.08C425.463 281.296 415.557 291.198 403.338 291.198C391.118 291.198 381.214 281.296 381.214 269.08C381.214 256.864 391.118 246.961 403.338 246.961C415.557 246.961 425.463 256.864 425.463 269.08Z" fill="#FF9A99"/>
<path d="M621.688 269.109C621.688 281.363 611.751 291.297 599.494 291.297C587.236 291.297 577.301 281.363 577.301 269.109C577.301 256.855 587.236 246.92 599.494 246.92C611.751 246.92 621.688 256.855 621.688 269.109Z" fill="#FF9A99"/>
<path d="M293.871 334.488C293.871 346.25 284.333 355.785 272.569 355.785C260.804 355.785 251.268 346.25 251.268 334.488C251.268 322.727 260.804 313.193 272.569 313.193C284.333 313.193 293.871 322.727 293.871 334.488Z" fill="#FF9A99"/>
<path d="M555.51 792.359C555.51 804.315 545.817 814.006 533.859 814.006C521.901 814.006 512.207 804.315 512.207 792.359C512.207 780.406 521.901 770.714 533.859 770.714C545.817 770.714 555.51 780.406 555.51 792.359Z" fill="#FF9A99"/>
<path d="M228.17 465.605C228.17 477.377 218.626 486.918 206.853 486.918C195.079 486.918 185.534 477.377 185.534 465.605C185.534 453.835 195.079 444.293 206.853 444.293C218.626 444.293 228.17 453.835 228.17 465.605Z" fill="#FF9A99"/>
<path d="M490.17 792.684C490.17 804.713 480.415 814.464 468.384 814.464C456.351 814.464 446.598 804.713 446.598 792.684C446.598 780.655 456.351 770.903 468.384 770.903C480.415 770.903 490.17 780.655 490.17 792.684Z" fill="#FF9A99"/>
<path d="M358.718 269.275C358.718 280.827 349.349 290.192 337.794 290.192C326.238 290.192 316.87 280.827 316.87 269.275C316.87 257.722 326.238 248.356 337.794 248.356C349.349 248.356 358.718 257.722 358.718 269.275Z" fill="#FF9A99"/>
<path d="M752.221 661.889C752.221 673.688 742.655 683.252 730.854 683.252C719.054 683.252 709.486 673.688 709.486 661.889C709.486 650.092 719.054 640.528 730.854 640.528C742.655 640.528 752.221 650.092 752.221 661.889Z" fill="#FF9A99"/>
<path d="M424.274 792.682C424.274 804.318 414.839 813.751 403.2 813.751C391.562 813.751 382.127 804.318 382.127 792.682C382.127 781.047 391.562 771.615 403.2 771.615C414.839 771.615 424.274 781.047 424.274 792.682Z" fill="#FF9A99"/>
<path d="M228.648 596.022C228.648 607.798 219.1 617.344 207.321 617.344C195.543 617.344 185.994 607.798 185.994 596.022C185.994 584.247 195.543 574.701 207.321 574.701C219.1 574.701 228.648 584.247 228.648 596.022Z" fill="#FF9A99"/>
<path d="M293.387 726.819C293.387 738.355 284.033 747.708 272.494 747.708C260.955 747.708 251.601 738.355 251.601 726.819C251.601 715.283 260.955 705.931 272.494 705.931C284.033 705.931 293.387 715.283 293.387 726.819Z" fill="#FF9A99"/>
<path d="M620.285 792.549C620.285 804.044 610.964 813.362 599.467 813.362C587.969 813.362 578.648 804.044 578.648 792.549C578.648 781.055 587.969 771.736 599.467 771.736C610.964 771.736 620.285 781.055 620.285 792.549Z" fill="#FF9A99"/>
<path d="M227.352 399.626C227.352 410.965 218.158 420.156 206.817 420.156C195.475 420.156 186.279 410.965 186.279 399.626C186.279 388.287 195.475 379.095 206.817 379.095C218.158 379.095 227.352 388.287 227.352 399.626Z" fill="#FF9A99"/>
<path d="M751.785 334.229C751.785 345.841 742.371 355.253 730.756 355.253C719.142 355.253 709.728 345.841 709.728 334.229C709.728 322.618 719.142 313.206 730.756 313.206C742.371 313.206 751.785 322.618 751.785 334.229Z" fill="#FF9A99"/>
<path d="M685.841 269.337C685.841 280.857 676.501 290.195 664.978 290.195C653.455 290.195 644.114 280.857 644.114 269.337C644.114 257.817 653.455 248.479 664.978 248.479C676.501 248.479 685.841 257.817 685.841 269.337Z" fill="#FF9A99"/>
<path d="M816.391 531.5C816.391 542.646 807.354 551.683 796.204 551.683C785.055 551.683 776.018 542.646 776.018 531.5C776.018 520.354 785.055 511.318 796.204 511.318C807.354 511.318 816.391 520.354 816.391 531.5Z" fill="#FF9A99"/>
<path d="M489.094 203.265C489.094 214.49 479.992 223.59 468.764 223.59C457.536 223.59 448.434 214.49 448.434 203.265C448.434 192.04 457.536 182.94 468.764 182.94C479.992 182.94 489.094 192.04 489.094 203.265Z" fill="#FF9A99"/>
<path d="M357.638 792.668C357.638 803.828 348.59 812.875 337.426 812.875C326.263 812.875 317.214 803.828 317.214 792.668C317.214 781.508 326.263 772.461 337.426 772.461C348.59 772.461 357.638 781.508 357.638 792.668Z" fill="#FF9A99"/>
<path d="M554.995 203.158C554.995 214.454 545.834 223.611 534.535 223.611C523.235 223.611 514.074 214.454 514.074 203.158C514.074 191.861 523.235 182.703 534.535 182.703C545.834 182.703 554.995 191.861 554.995 203.158Z" fill="#FF9A99"/>
<path d="M816.407 465.513C816.407 476.663 807.367 485.699 796.216 485.699C785.064 485.699 776.024 476.663 776.024 465.513C776.024 454.365 785.064 445.329 796.216 445.329C807.367 445.329 816.407 454.365 816.407 465.513Z" fill="#FF9A99"/>
<path d="M423.676 203.443C423.676 214.456 414.746 223.385 403.73 223.385C392.714 223.385 383.783 214.456 383.783 203.443C383.783 192.43 392.714 183.503 403.73 183.503C414.746 183.503 423.676 192.43 423.676 203.443Z" fill="#FF9A99"/>
<path d="M291.793 268.683C291.793 279.349 283.143 287.996 272.473 287.996C261.805 287.996 253.155 279.349 253.155 268.683C253.155 258.016 261.805 249.368 272.473 249.368C283.143 249.368 291.793 258.016 291.793 268.683Z" fill="#FF9A99"/>
<path d="M619.727 203.171C619.727 214.036 610.916 222.845 600.046 222.845C589.178 222.845 580.367 214.036 580.367 203.171C580.367 192.304 589.178 183.497 600.046 183.497C610.916 183.497 619.727 192.304 619.727 203.171Z" fill="#FF9A99"/>
<path d="M225.942 334.306C225.942 344.873 217.374 353.438 206.806 353.438C196.237 353.438 187.669 344.873 187.669 334.306C187.669 323.741 196.237 315.175 206.806 315.175C217.374 315.175 225.942 323.741 225.942 334.306Z" fill="#FF9A99"/>
<path d="M356.124 203.272C356.124 213.6 347.749 221.973 337.419 221.973C327.088 221.973 318.714 213.6 318.714 203.272C318.714 192.945 327.088 184.572 337.419 184.572C347.749 184.572 356.124 192.945 356.124 203.272Z" fill="#FF9A99"/>
<path d="M814.87 661.748C814.87 672.049 806.517 680.4 796.213 680.4C785.908 680.4 777.555 672.049 777.555 661.748C777.555 651.447 785.908 643.096 796.213 643.096C806.517 643.096 814.87 651.447 814.87 661.748Z" fill="#FF9A99"/>
<path d="M487.167 858.593C487.167 868.878 478.826 877.216 468.54 877.216C458.252 877.216 449.912 868.878 449.912 858.593C449.912 848.308 458.252 839.97 468.54 839.97C478.826 839.97 487.167 848.308 487.167 858.593Z" fill="#FF9A99"/>
<path d="M160.205 530.815C160.205 541.079 151.883 549.399 141.616 549.399C131.349 549.399 123.026 541.079 123.026 530.815C123.026 520.551 131.349 512.23 141.616 512.23C151.883 512.23 160.205 520.551 160.205 530.815Z" fill="#FF9A99"/>
<path d="M160.052 465.558C160.052 475.851 151.707 484.194 141.412 484.194C131.117 484.194 122.771 475.851 122.771 465.558C122.771 455.266 131.117 446.922 141.412 446.922C151.707 446.922 160.052 455.266 160.052 465.558Z" fill="#FF9A99"/>
<path d="M552.903 858.245C552.903 868.553 544.543 876.909 534.233 876.909C523.922 876.909 515.563 868.553 515.563 858.245C515.563 847.936 523.922 839.58 534.233 839.58C544.543 839.58 552.903 847.936 552.903 858.245Z" fill="#FF9A99"/>
<path d="M291.031 792.419C291.031 802.67 282.718 810.98 272.465 810.98C262.211 810.98 253.898 802.67 253.898 792.419C253.898 782.168 262.211 773.858 272.465 773.858C282.718 773.858 291.031 782.168 291.031 792.419Z" fill="#FF9A99"/>
<path d="M225.197 727.058C225.197 737.254 216.93 745.519 206.732 745.519C196.533 745.519 188.267 737.254 188.267 727.058C188.267 716.862 196.533 708.598 206.732 708.598C216.93 708.598 225.197 716.862 225.197 727.058Z" fill="#FF9A99"/>
<path d="M422.291 857.959C422.291 868.251 413.946 876.593 403.652 876.593C393.359 876.593 385.015 868.251 385.015 857.959C385.015 847.669 393.359 839.327 403.652 839.327C413.946 839.327 422.291 847.669 422.291 857.959Z" fill="#FF9A99"/>
<path d="M683.506 203.364C683.506 213.303 675.445 221.36 665.503 221.36C655.561 221.36 647.502 213.303 647.502 203.364C647.502 193.425 655.561 185.367 665.503 185.367C675.445 185.367 683.506 193.425 683.506 203.364Z" fill="#FF9A99"/>
<path d="M814.109 334.674C814.109 344.553 806.099 352.562 796.218 352.562C786.337 352.562 778.327 344.553 778.327 334.674C778.327 324.796 786.337 316.788 796.218 316.788C806.099 316.788 814.109 324.796 814.109 334.674Z" fill="#FF9A99"/>
<path d="M159.282 399.964C159.282 409.83 151.282 417.829 141.412 417.829C131.544 417.829 123.543 409.83 123.543 399.964C123.543 390.098 131.544 382.099 141.412 382.099C151.282 382.099 159.282 390.098 159.282 399.964Z" fill="#FF9A99"/>
<path d="M617.775 858.214C617.775 868.114 609.747 876.139 599.845 876.139C589.943 876.139 581.916 868.114 581.916 858.214C581.916 848.314 589.943 840.289 599.845 840.289C609.747 840.289 617.775 848.314 617.775 858.214Z" fill="#FF9A99"/>
<path d="M224.562 268.511C224.562 278.375 216.563 286.37 206.699 286.37C196.832 286.37 188.835 278.375 188.835 268.511C188.835 258.649 196.832 250.652 206.699 250.652C216.563 250.652 224.562 258.649 224.562 268.511Z" fill="#FF9A99"/>
<path d="M354.846 858.626C354.846 868.217 347.068 875.993 337.475 875.993C327.881 875.993 320.104 868.217 320.104 858.626C320.104 849.034 327.881 841.26 337.475 841.26C347.068 841.26 354.846 849.034 354.846 858.626Z" fill="#FF9A99"/>
<path d="M159.062 661.773C159.062 671.382 151.269 679.172 141.658 679.172C132.046 679.172 124.255 671.382 124.255 661.773C124.255 652.163 132.046 644.374 141.658 644.374C151.269 644.374 159.062 652.163 159.062 661.773Z" fill="#FF9A99"/>
<path d="M879.061 531.416C879.061 541.032 871.265 548.826 861.647 548.826C852.03 548.826 844.233 541.032 844.233 531.416C844.233 521.802 852.03 514.007 861.647 514.007C871.265 514.007 879.061 521.802 879.061 531.416Z" fill="#FF9A99"/>
<path d="M290.262 203.226C290.262 212.833 282.472 220.621 272.863 220.621C263.253 220.621 255.463 212.833 255.463 203.226C255.463 193.619 263.253 185.831 272.863 185.831C282.472 185.831 290.262 193.619 290.262 203.226Z" fill="#FF9A99"/>
<path d="M485.818 137.752C485.818 147.275 478.096 154.995 468.571 154.995C459.044 154.995 451.322 147.275 451.322 137.752C451.322 128.23 459.044 120.51 468.571 120.51C478.096 120.51 485.818 128.23 485.818 137.752Z" fill="#FF9A99"/>
<path d="M551.539 138.131C551.539 147.411 544.014 154.934 534.732 154.934C525.45 154.934 517.925 147.411 517.925 138.131C517.925 128.851 525.45 121.328 534.732 121.328C544.014 121.328 551.539 128.851 551.539 138.131Z" fill="#FF9A99"/>
<path d="M419.731 137.816C419.731 146.925 412.346 154.309 403.235 154.309C394.124 154.309 386.738 146.925 386.738 137.816C386.738 128.707 394.124 121.323 403.235 121.323C412.346 121.323 419.731 128.707 419.731 137.816Z" fill="#FF9A99"/>
<path d="M681.398 858.572C681.398 867.836 673.887 875.346 664.619 875.346C655.353 875.346 647.841 867.836 647.841 858.572C647.841 849.308 655.353 841.797 664.619 841.797C673.887 841.797 681.398 849.308 681.398 858.572Z" fill="#FF9A99"/>
<path d="M878.212 596.002C878.212 605.21 870.745 612.675 861.535 612.675C852.326 612.675 844.859 605.21 844.859 596.002C844.859 586.795 852.326 579.331 861.535 579.331C870.745 579.331 878.212 586.795 878.212 596.002Z" fill="#FF9A99"/>
<path d="M158.433 334.679C158.433 343.919 150.941 351.411 141.698 351.411C132.455 351.411 124.962 343.919 124.962 334.679C124.962 325.439 132.455 317.947 141.698 317.947C150.941 317.947 158.433 325.439 158.433 334.679Z" fill="#FF9A99"/>
<path d="M616.773 137.884C616.773 147.032 609.355 154.447 600.204 154.447C591.054 154.447 583.637 147.032 583.637 137.884C583.637 128.736 591.054 121.319 600.204 121.319C609.355 121.319 616.773 128.736 616.773 137.884Z" fill="#FF9A99"/>
<path d="M877.954 400.24C877.954 409.376 870.545 416.782 861.407 416.782C852.269 416.782 844.86 409.376 844.86 400.24C844.86 391.104 852.269 383.698 861.407 383.698C870.545 383.698 877.954 391.104 877.954 400.24Z" fill="#FF9A99"/>
<path d="M223.288 792.698C223.288 801.704 215.985 809.005 206.977 809.005C197.97 809.005 190.667 801.704 190.667 792.698C190.667 783.694 197.97 776.393 206.977 776.393C215.985 776.393 223.288 783.694 223.288 792.698Z" fill="#FF9A99"/>
<path d="M812.64 269.493C812.64 278.446 805.38 285.702 796.427 285.702C787.473 285.702 780.214 278.446 780.214 269.493C780.214 260.542 787.473 253.286 796.427 253.286C805.38 253.286 812.64 260.542 812.64 269.493Z" fill="#FF9A99"/>
<path d="M746.668 203.593C746.668 212.395 739.531 219.53 730.727 219.53C721.923 219.53 714.785 212.395 714.785 203.593C714.785 194.792 721.923 187.656 730.727 187.656C739.531 187.656 746.668 194.792 746.668 203.593Z" fill="#FF9A99"/>
<path d="M157.501 727.391C157.501 736.111 150.43 743.181 141.707 743.181C132.984 743.181 125.913 736.111 125.913 727.391C125.913 718.672 132.984 711.602 141.707 711.602C150.43 711.602 157.501 718.672 157.501 727.391Z" fill="#FF9A99"/>
<path d="M287.728 858.531C287.728 867.302 280.615 874.415 271.84 874.415C263.065 874.415 255.952 867.302 255.952 858.531C255.952 849.758 263.065 842.647 271.84 842.647C280.615 842.647 287.728 849.758 287.728 858.531Z" fill="#FF9A99"/>
<path d="M90.8486 531.043C90.8486 539.57 83.9341 546.481 75.4051 546.481C66.8764 546.481 59.9619 539.57 59.9619 531.043C59.9619 522.517 66.8764 515.604 75.4051 515.604C83.9341 515.604 90.8486 522.517 90.8486 531.043Z" fill="#FF9A99"/>
<path d="M549.371 924.217C549.371 932.491 542.662 939.198 534.385 939.198C526.11 939.198 519.401 932.491 519.401 924.217C519.401 915.944 526.11 909.236 534.385 909.236C542.662 909.236 549.371 915.944 549.371 924.217Z" fill="#FF9A99"/>
<path d="M90.8046 465.076C90.8046 473.313 84.1261 479.989 75.8877 479.989C67.6494 479.989 60.9707 473.313 60.9707 465.076C60.9707 456.84 67.6494 450.163 75.8877 450.163C84.1261 450.163 90.8046 456.84 90.8046 465.076Z" fill="#FF9A99"/>
<path d="M680.823 137.841C680.823 146.187 674.056 152.952 665.708 152.952C657.358 152.952 650.591 146.187 650.591 137.841C650.591 129.493 657.358 122.728 665.708 122.728C674.056 122.728 680.823 129.493 680.823 137.841Z" fill="#FF9A99"/>
<path d="M222.343 203.504C222.343 211.831 215.592 218.581 207.262 218.581C198.934 218.581 192.182 211.831 192.182 203.504C192.182 195.177 198.934 188.427 207.262 188.427C215.592 188.427 222.343 195.177 222.343 203.504Z" fill="#FF9A99"/>
<path d="M91.1301 596.076C91.1301 604.421 84.3639 611.186 76.017 611.186C67.6696 611.186 60.9033 604.421 60.9033 596.076C60.9033 587.732 67.6696 580.966 76.017 580.966C84.3639 580.966 91.1301 587.732 91.1301 596.076Z" fill="#FF9A99"/>
<path d="M876.915 334.49C876.915 342.902 870.093 349.722 861.679 349.722C853.265 349.722 846.444 342.902 846.444 334.49C846.444 326.078 853.265 319.259 861.679 319.259C870.093 319.259 876.915 326.078 876.915 334.49Z" fill="#FF9A99"/>
<path d="M810.818 793.024C810.818 801.325 804.086 808.055 795.784 808.055C787.48 808.055 780.749 801.325 780.749 793.024C780.749 784.722 787.48 777.993 795.784 777.993C804.086 777.993 810.818 784.722 810.818 793.024Z" fill="#FF9A99"/>
<path d="M418.08 924.19C418.08 932.525 411.32 939.282 402.983 939.282C394.644 939.282 387.886 932.525 387.886 924.19C387.886 915.854 394.644 909.098 402.983 909.098C411.32 909.098 418.08 915.854 418.08 924.19Z" fill="#FF9A99"/>
<path d="M155.438 268.415C155.438 276.485 148.894 283.027 140.822 283.027C132.75 283.027 126.206 276.485 126.206 268.415C126.206 260.346 132.75 253.805 140.822 253.805C148.894 253.805 155.438 260.346 155.438 268.415Z" fill="#FF9A99"/>
<path d="M614.254 924.19C614.254 932.057 607.876 938.433 600.009 938.433C592.141 938.433 585.764 932.057 585.764 924.19C585.764 916.325 592.141 909.949 600.009 909.949C607.876 909.949 614.254 916.325 614.254 924.19Z" fill="#FF9A99"/>
<path d="M90.0457 400.267C90.0457 408.085 83.7063 414.423 75.886 414.423C68.0661 414.423 61.7266 408.085 61.7266 400.267C61.7266 392.449 68.0661 386.111 75.886 386.111C83.7063 386.111 90.0457 392.449 90.0457 400.267Z" fill="#FF9A99"/>
<path d="M285.993 138.071C285.993 145.62 279.872 151.738 272.321 151.738C264.771 151.738 258.65 145.62 258.65 138.071C258.65 130.522 264.771 124.404 272.321 124.404C279.872 124.404 285.993 130.522 285.993 138.071Z" fill="#FF9A99"/>
<path d="M875.997 727.828C875.997 735.538 869.744 741.789 862.032 741.789C854.32 741.789 848.068 735.538 848.068 727.828C848.068 720.119 854.32 713.868 862.032 713.868C869.744 713.868 875.997 720.119 875.997 727.828Z" fill="#FF9A99"/>
<path d="M89.3948 662.177C89.3948 669.833 83.188 676.038 75.5309 676.038C67.8743 676.038 61.667 669.833 61.667 662.177C61.667 654.523 67.8743 648.318 75.5309 648.318C83.188 648.318 89.3948 654.523 89.3948 662.177Z" fill="#FF9A99"/>
<path d="M482.082 72.7314C482.082 79.9307 476.244 85.7676 469.043 85.7676C461.841 85.7676 456.003 79.9307 456.003 72.7314C456.003 65.532 461.841 59.6952 469.043 59.6952C476.244 59.6952 482.082 65.532 482.082 72.7314Z" fill="#FF9A99"/>
<path d="M547.877 72.7536C547.877 79.9976 542.003 85.8691 534.758 85.8691C527.514 85.8691 521.641 79.9976 521.641 72.7536C521.641 65.5108 527.514 59.6393 534.758 59.6393C542.003 59.6393 547.877 65.5108 547.877 72.7536Z" fill="#FF9A99"/>
<path d="M940.679 465.345C940.679 472.519 934.862 478.333 927.689 478.333C920.513 478.333 914.697 472.519 914.697 465.345C914.697 458.173 920.513 452.359 927.689 452.359C934.862 452.359 940.679 458.173 940.679 465.345Z" fill="#FF9A99"/>
<path d="M154.058 792.399C154.058 799.591 148.228 805.422 141.034 805.422C133.84 805.422 128.008 799.591 128.008 792.399C128.008 785.207 133.84 779.377 141.034 779.377C148.228 779.377 154.058 785.207 154.058 792.399Z" fill="#FF9A99"/>
<path d="M219.761 857.889C219.761 865.132 213.888 871.005 206.643 871.005C199.397 871.005 193.524 865.132 193.524 857.889C193.524 850.647 199.397 844.774 206.643 844.774C213.888 844.774 219.761 850.647 219.761 857.889Z" fill="#FF9A99"/>
<path d="M940.68 530.978C940.68 538.134 934.878 543.934 927.72 543.934C920.563 543.934 914.761 538.134 914.761 530.978C914.761 523.822 920.563 518.021 927.72 518.021C934.878 518.021 940.68 523.822 940.68 530.978Z" fill="#FF9A99"/>
<path d="M88.5647 334.011C88.5647 341.192 82.7421 347.013 75.5597 347.013C68.3773 347.013 62.5547 341.192 62.5547 334.011C62.5547 326.83 68.3773 321.008 75.5597 321.008C82.7421 321.008 88.5647 326.83 88.5647 334.011Z" fill="#FF9A99"/>
<path d="M678.481 923.628C678.481 930.981 672.519 936.94 665.165 936.94C657.811 936.94 651.849 930.981 651.849 923.628C651.849 916.276 657.811 910.315 665.165 910.315C672.519 910.315 678.481 916.276 678.481 923.628Z" fill="#FF9A99"/>
<path d="M744.01 137.7C744.01 144.678 738.352 150.335 731.371 150.335C724.391 150.335 718.732 144.678 718.732 137.7C718.732 130.722 724.391 125.065 731.371 125.065C738.352 125.065 744.01 130.722 744.01 137.7Z" fill="#FF9A99"/>
<path d="M940.201 596.008C940.201 603.113 934.441 608.872 927.334 608.872C920.228 608.872 914.467 603.113 914.467 596.008C914.467 588.904 920.228 583.144 927.334 583.144C934.441 583.144 940.201 588.904 940.201 596.008Z" fill="#FF9A99"/>
<path d="M874.247 268.868C874.247 275.948 868.507 281.686 861.426 281.686C854.345 281.686 848.604 275.948 848.604 268.868C848.604 261.788 854.345 256.05 861.426 256.05C868.507 256.05 874.247 261.788 874.247 268.868Z" fill="#FF9A99"/>
<path d="M415.816 72.4313C415.816 79.5178 410.07 85.2617 402.982 85.2617C395.894 85.2617 390.147 79.5178 390.147 72.4313C390.147 65.3448 395.894 59.5997 402.982 59.5997C410.07 59.5997 415.816 65.3448 415.816 72.4313Z" fill="#FF9A99"/>
<path d="M611.761 72.6198C611.761 79.3878 606.272 84.875 599.502 84.875C592.732 84.875 587.244 79.3878 587.244 72.6198C587.244 65.8519 592.732 60.3647 599.502 60.3647C606.272 60.3647 611.761 65.8519 611.761 72.6198Z" fill="#FF9A99"/>
<path d="M940.092 399.712C940.092 406.549 934.548 412.091 927.709 412.091C920.871 412.091 915.326 406.549 915.326 399.712C915.326 392.874 920.871 387.333 927.709 387.333C934.548 387.333 940.092 392.874 940.092 399.712Z" fill="#FF9A99"/>
<path d="M88.0811 727.453C88.0811 734.079 82.7081 739.451 76.0799 739.451C69.4517 739.451 64.0781 734.079 64.0781 727.453C64.0781 720.826 69.4517 715.454 76.0799 715.454C82.7081 715.454 88.0811 720.826 88.0811 727.453Z" fill="#FF9A99"/>
<path d="M283.655 924.197C283.655 930.785 278.312 936.127 271.722 936.127C265.131 936.127 259.789 930.785 259.789 924.197C259.789 917.607 265.131 912.266 271.722 912.266C278.312 912.266 283.655 917.607 283.655 924.197Z" fill="#FF9A99"/>
<path d="M152.588 203.915C152.588 210.307 147.405 215.488 141.011 215.488C134.618 215.488 129.435 210.307 129.435 203.915C129.435 197.523 134.618 192.342 141.011 192.342C147.405 192.342 152.588 197.523 152.588 203.915Z" fill="#FF9A99"/>
<path d="M938.262 662.282C938.262 668.702 933.057 673.905 926.636 673.905C920.214 673.905 915.01 668.702 915.01 662.282C915.01 655.864 920.214 650.66 926.636 650.66C933.057 650.66 938.262 655.864 938.262 662.282Z" fill="#FF9A99"/>
<path d="M807.888 858.149C807.888 864.487 802.749 869.626 796.408 869.626C790.069 869.626 784.929 864.487 784.929 858.149C784.929 851.81 790.069 846.673 796.408 846.673C802.749 846.673 807.888 851.81 807.888 858.149Z" fill="#FF9A99"/>
<path d="M218.22 138.208C218.22 144.593 213.042 149.769 206.656 149.769C200.269 149.769 195.092 144.593 195.092 138.208C195.092 131.823 200.269 126.647 206.656 126.647C213.042 126.647 218.22 131.823 218.22 138.208Z" fill="#FF9A99"/>
<path d="M349.184 72.6631C349.184 78.9376 344.095 84.0244 337.819 84.0244C331.542 84.0244 326.455 78.9376 326.455 72.6631C326.455 66.3886 331.542 61.3018 337.819 61.3018C344.095 61.3018 349.184 66.3886 349.184 72.6631Z" fill="#FF9A99"/>
<path d="M675.829 72.4685C675.829 78.4194 671.004 83.2422 665.053 83.2422C659.1 83.2422 654.276 78.4194 654.276 72.4685C654.276 66.5189 659.1 61.6949 665.053 61.6949C671.004 61.6949 675.829 66.5189 675.829 72.4685Z" fill="#FF9A99"/>
<path d="M86.282 268.459C86.282 274.406 81.4592 279.228 75.5096 279.228C69.5602 279.228 64.7373 274.406 64.7373 268.459C64.7373 262.51 69.5602 257.689 75.5096 257.689C81.4592 257.689 86.282 262.51 86.282 268.459Z" fill="#FF9A99"/>
<path d="M479.016 989.277C479.016 995.2 474.213 1000 468.289 1000C462.365 1000 457.563 995.2 457.563 989.277C457.563 983.355 462.365 978.553 468.289 978.553C474.213 978.553 479.016 983.355 479.016 989.277Z" fill="#FF9A99"/>
<path d="M21.5584 465.332C21.5584 471.281 16.734 476.104 10.7836 476.104C4.83257 476.104 0.00878906 471.281 0.00878906 465.332C0.00878906 459.382 4.83257 454.56 10.7836 454.56C16.734 454.56 21.5584 459.382 21.5584 465.332Z" fill="#FF9A99"/>
<path d="M21.5713 530.895C21.5713 536.851 16.7428 541.679 10.7859 541.679C4.8291 541.679 0 536.851 0 530.895C0 524.941 4.8291 520.113 10.7859 520.113C16.7428 520.113 21.5713 524.941 21.5713 530.895Z" fill="#FF9A99"/>
<path d="M938.454 334.85C938.454 340.759 933.663 345.548 927.753 345.548C921.843 345.548 917.051 340.759 917.051 334.85C917.051 328.941 921.843 324.151 927.753 324.151C933.663 324.151 938.454 328.941 938.454 334.85Z" fill="#FF9A99"/>
<path d="M20.6259 596.639C20.6259 602.128 16.1752 606.577 10.6853 606.577C5.19541 606.577 0.745117 602.128 0.745117 596.639C0.745117 591.151 5.19541 586.701 10.6853 586.701C16.1752 586.701 20.6259 591.151 20.6259 596.639Z" fill="#FF9A99"/>
<path d="M413.791 989.377C413.791 994.958 409.266 999.482 403.683 999.482C398.1 999.482 393.575 994.958 393.575 989.377C393.575 983.797 398.1 979.273 403.683 979.273C409.266 979.273 413.791 983.797 413.791 989.377Z" fill="#FF9A99"/>
<path d="M150.905 858.554C150.905 863.797 146.654 868.047 141.409 868.047C136.165 868.047 131.914 863.797 131.914 858.554C131.914 853.312 136.165 849.062 141.409 849.062C146.654 849.062 150.905 853.312 150.905 858.554Z" fill="#FF9A99"/>
<path d="M871.344 203.343C871.344 208.7 866.999 213.044 861.64 213.044C856.281 213.044 851.937 208.7 851.937 203.343C851.937 197.984 856.281 193.642 861.64 193.642C866.999 193.642 871.344 197.984 871.344 203.343Z" fill="#FF9A99"/>
<path d="M805.744 137.76C805.744 143.118 801.399 147.461 796.041 147.461C790.681 147.461 786.337 143.118 786.337 137.76C786.337 132.403 790.681 128.059 796.041 128.059C801.399 128.059 805.744 132.403 805.744 137.76Z" fill="#FF9A99"/>
<path d="M19.7914 400.215C19.7914 405.519 15.4908 409.818 10.186 409.818C4.88118 409.818 0.581055 405.519 0.581055 400.215C0.581055 394.913 4.88118 390.613 10.186 390.613C15.4908 390.613 19.7914 394.913 19.7914 400.215Z" fill="#FF9A99"/>
<path d="M281.247 72.718C281.247 77.7874 277.136 81.8984 272.065 81.8984C266.995 81.8984 262.884 77.7874 262.884 72.718C262.884 67.6485 266.995 63.5387 272.065 63.5387C277.136 63.5387 281.247 67.6485 281.247 72.718Z" fill="#FF9A99"/>
<path d="M935.84 727.742C935.84 732.828 931.714 736.953 926.625 736.953C921.537 736.953 917.411 732.828 917.411 727.742C917.411 722.654 921.537 718.529 926.625 718.529C931.714 718.529 935.84 722.654 935.84 727.742Z" fill="#FF9A99"/>
<path d="M85.0305 793.008C85.0305 797.946 81.0264 801.949 76.0874 801.949C71.1482 801.949 67.1445 797.946 67.1445 793.008C67.1445 788.071 71.1482 784.068 76.0874 784.068C81.0264 784.068 85.0305 788.071 85.0305 793.008Z" fill="#FF9A99"/>
<path d="M215.062 923.01C215.062 927.903 211.093 931.872 206.198 931.872C201.302 931.872 197.334 927.903 197.334 923.01C197.334 918.116 201.302 914.148 206.198 914.148C211.093 914.148 215.062 918.116 215.062 923.01Z" fill="#FF9A99"/>
<path d="M19.2293 662.153C19.2293 666.832 15.4355 670.626 10.7556 670.626C6.07565 670.626 2.28223 666.832 2.28223 662.153C2.28223 657.476 6.07565 653.682 10.7556 653.682C15.4355 653.682 19.2293 657.476 19.2293 662.153Z" fill="#FF9A99"/>
<path d="M346.42 989.36C346.42 994.028 342.635 997.812 337.966 997.812C333.297 997.812 329.513 994.028 329.513 989.36C329.513 984.693 333.297 980.909 337.966 980.909C342.635 980.909 346.42 984.693 346.42 989.36Z" fill="#FF9A99"/>
<path d="M738.229 72.693C738.229 76.8884 734.827 80.2891 730.631 80.2891C726.435 80.2891 723.033 76.8884 723.033 72.693C723.033 68.4976 726.435 65.0969 730.631 65.0969C734.827 65.0969 738.229 68.4976 738.229 72.693Z" fill="#FF9A99"/>
<path d="M935.486 269.439C935.486 273.731 932.007 277.21 927.713 277.21C923.421 277.21 919.94 273.731 919.94 269.439C919.94 265.148 923.421 261.668 927.713 261.668C932.007 261.668 935.486 265.148 935.486 269.439Z" fill="#FF9A99"/>
<path d="M17.5818 334.653C17.5818 338.742 14.2666 342.057 10.1767 342.057C6.08679 342.057 2.77148 338.742 2.77148 334.653C2.77148 330.564 6.08679 327.25 10.1767 327.25C14.2666 327.25 17.5818 330.564 17.5818 334.653Z" fill="#FF9A99"/>
<path d="M999.993 465.811C999.993 469.804 996.755 473.041 992.76 473.041C988.766 473.041 985.529 469.804 985.529 465.811C985.529 461.819 988.766 458.582 992.76 458.582C996.755 458.582 999.993 461.819 999.993 465.811Z" fill="#FF9A99"/>
<path d="M999.998 531.422C999.998 535.417 996.759 538.655 992.764 538.655C988.769 538.655 985.53 535.417 985.53 531.422C985.53 527.429 988.769 524.191 992.764 524.191C996.759 524.191 999.998 527.429 999.998 531.422Z" fill="#FF9A99"/>
<path d="M541.615 7.42439C541.615 11.3483 538.433 14.5283 534.508 14.5283C530.584 14.5283 527.402 11.3483 527.402 7.42439C527.402 3.50051 530.584 0.320522 534.508 0.320522C538.433 0.320522 541.615 3.50051 541.615 7.42439Z" fill="#FF9A99"/>
<path d="M476.015 7.42883C476.015 11.4035 472.791 14.627 468.814 14.627C464.839 14.627 461.614 11.4035 461.614 7.42883C461.614 3.45288 464.839 0.230708 468.814 0.230708C472.791 0.230708 476.015 3.45288 476.015 7.42883Z" fill="#FF9A99"/>
<path d="M868.823 858.56C868.823 862.53 865.603 865.748 861.632 865.748C857.662 865.748 854.442 862.53 854.442 858.56C854.442 854.589 857.662 851.372 861.632 851.372C865.603 851.372 868.823 854.589 868.823 858.56Z" fill="#FF9A99"/>
<path d="M671.957 988.854C671.957 992.87 668.702 996.125 664.684 996.125C660.668 996.125 657.411 992.87 657.411 988.854C657.411 984.838 660.668 981.583 664.684 981.583C668.702 981.583 671.957 984.838 671.957 988.854Z" fill="#FF9A99"/>
<path d="M148.818 137.869C148.818 141.865 145.578 145.104 141.582 145.104C137.585 145.104 134.346 141.865 134.346 137.869C134.346 133.874 137.585 130.635 141.582 130.635C145.578 130.635 148.818 133.874 148.818 137.869Z" fill="#FF9A99"/>
<path d="M83.2643 203.858C83.2643 207.687 80.1606 210.79 76.3318 210.79C72.503 210.79 69.3994 207.687 69.3994 203.858C69.3994 200.031 72.503 196.928 76.3318 196.928C80.1606 196.928 83.2643 200.031 83.2643 203.858Z" fill="#FF9A99"/>
<path d="M999.297 596.621C999.297 600.492 996.156 603.633 992.283 603.633C988.41 603.633 985.271 600.492 985.271 596.621C985.271 592.749 988.41 589.61 992.283 589.61C996.156 589.61 999.297 592.749 999.297 596.621Z" fill="#FF9A99"/>
<path d="M410.66 6.96994C410.66 10.8207 407.538 13.9424 403.687 13.9424C399.835 13.9424 396.713 10.8207 396.713 6.96994C396.713 3.12045 399.835 -0.00129721 403.687 -0.00129721C407.538 -0.00129721 410.66 3.12045 410.66 6.96994Z" fill="#FF9A99"/>
<path d="M803.566 923.543C803.566 927.416 800.426 930.555 796.552 930.555C792.679 930.555 789.539 927.416 789.539 923.543C789.539 919.671 792.679 916.532 796.552 916.532C800.426 916.532 803.566 919.671 803.566 923.543Z" fill="#FF9A99"/>
<path d="M212.81 72.5552C212.81 75.8939 210.101 78.6016 206.762 78.6016C203.421 78.6016 200.714 75.8939 200.714 72.5552C200.714 69.2152 203.421 66.5088 206.762 66.5088C210.101 66.5088 212.81 69.2152 212.81 72.5552Z" fill="#FF9A99"/>
<path d="M278.593 989.334C278.593 992.736 275.834 995.493 272.432 995.493C269.029 995.493 266.271 992.736 266.271 989.334C266.271 985.932 269.029 983.175 272.432 983.175C275.834 983.175 278.593 985.932 278.593 989.334Z" fill="#FF9A99"/>
<path d="M932.836 793.355C932.836 796.752 930.082 799.507 926.683 799.507C923.285 799.507 920.529 796.752 920.529 793.355C920.529 789.957 923.285 787.203 926.683 787.203C930.082 787.203 932.836 789.957 932.836 793.355Z" fill="#FF9A99"/>
<path d="M15.9652 726.756C15.9652 730.102 13.252 732.814 9.90521 732.814C6.55792 732.814 3.84473 730.102 3.84473 726.756C3.84473 723.41 6.55792 720.697 9.90521 720.697C13.252 720.697 15.9652 723.41 15.9652 726.756Z" fill="#FF9A99"/>
<path d="M998.345 399.855C998.345 402.971 995.819 405.496 992.703 405.496C989.587 405.496 987.061 402.971 987.061 399.855C987.061 396.74 989.587 394.214 992.703 394.214C995.819 394.214 998.345 396.74 998.345 399.855Z" fill="#FF9A99"/>
<path d="M605.609 7.05975C605.609 10.4096 602.892 13.126 599.542 13.126C596.19 13.126 593.473 10.4096 593.473 7.05975C593.473 3.70865 596.19 0.992315 599.542 0.992315C602.892 0.992315 605.609 3.70865 605.609 7.05975Z" fill="#FF9A99"/>
<path d="M342.891 7.72263C342.891 10.7489 340.437 13.2012 337.411 13.2012C334.384 13.2012 331.93 10.7489 331.93 7.72263C331.93 4.69634 334.384 2.24408 337.411 2.24408C340.437 2.24408 342.891 4.69634 342.891 7.72263Z" fill="#FF9A99"/>
<path d="M864.216 138.861C864.216 140.888 862.573 142.532 860.545 142.532C858.516 142.532 856.873 140.888 856.873 138.861C856.873 136.834 858.516 135.192 860.545 135.192C862.573 135.192 864.216 136.834 864.216 138.861Z" fill="#FF9A99"/>
<path d="M15.4655 269.945C15.4655 271.324 14.3469 272.442 12.9678 272.442C11.5887 272.442 10.4707 271.324 10.4707 269.945C10.4707 268.567 11.5887 267.449 12.9678 267.449C14.3469 267.449 15.4655 268.567 15.4655 269.945Z" fill="#FF9A99"/>
<path d="M731.598 986.848C731.598 988.111 730.574 989.135 729.311 989.135C728.049 989.135 727.024 988.111 727.024 986.848C727.024 985.585 728.049 984.563 729.311 984.563C730.574 984.563 731.598 985.585 731.598 986.848Z" fill="#FF9A99"/>
<path d="M80.3 856.552C80.3 858.046 79.0885 859.257 77.5936 859.257C76.0991 859.257 74.8877 858.046 74.8877 856.552C74.8877 855.058 76.0991 853.846 77.5936 853.846C79.0885 853.846 80.3 855.058 80.3 856.552Z" fill="#FF9A99"/>
<path d="M626.919 531.251C626.919 546.42 614.62 558.716 599.448 558.716C584.276 558.716 571.977 546.42 571.977 531.251C571.977 516.084 584.276 503.786 599.448 503.786C614.62 503.786 626.919 516.084 626.919 531.251Z" fill="#FF9A99"/>
<path d="M498.685 530.784C498.685 547.449 485.171 560.959 468.502 560.959C451.833 560.959 438.319 547.449 438.319 530.784C438.319 514.119 451.833 500.611 468.502 500.611C485.171 500.611 498.685 514.119 498.685 530.784Z" fill="#FF9A99"/>
<path d="M494.761 661.548C494.761 676.059 482.995 687.822 468.48 687.822C453.964 687.822 442.198 676.059 442.198 661.548C442.198 647.036 453.964 635.273 468.48 635.273C482.995 635.273 494.761 647.036 494.761 661.548Z" fill="#FF9A99"/>
<path d="M492.441 727.297C492.441 740.731 481.547 751.622 468.11 751.622C454.671 751.622 443.776 740.731 443.776 727.297C443.776 713.861 454.671 702.97 468.11 702.97C481.547 702.97 492.441 713.861 492.441 727.297Z" fill="#FF9A99"/>
<path d="M562.779 465.437C562.779 481.256 549.953 494.079 534.129 494.079C518.307 494.079 505.479 481.256 505.479 465.437C505.479 449.618 518.307 436.794 534.129 436.794C549.953 436.794 562.779 449.618 562.779 465.437Z" fill="#FF9A99"/>
<path d="M562.082 596.039C562.082 611.467 549.572 623.974 534.14 623.974C518.708 623.974 506.198 611.467 506.198 596.039C506.198 580.611 518.708 568.105 534.14 568.105C549.572 568.105 562.082 580.611 562.082 596.039Z" fill="#FF9A99"/>
<path d="M497.081 596.238C497.081 611.804 484.459 624.423 468.89 624.423C453.319 624.423 440.697 611.804 440.697 596.238C440.697 580.671 453.319 568.053 468.89 568.053C484.459 568.053 497.081 580.671 497.081 596.238Z" fill="#FF9A99"/>
<path d="M431.604 530.648C431.604 546.244 418.959 558.887 403.36 558.887C387.76 558.887 375.115 546.244 375.115 530.648C375.115 515.053 387.76 502.411 403.36 502.411C418.959 502.411 431.604 515.053 431.604 530.648Z" fill="#FF9A99"/>
<path d="M560.111 661.796C560.111 676.106 548.508 687.707 534.193 687.707C519.88 687.707 508.276 676.106 508.276 661.796C508.276 647.486 519.88 635.886 534.193 635.886C548.508 635.886 560.111 647.486 560.111 661.796Z" fill="#FF9A99"/>
<path d="M689.809 596.194C689.809 609.687 678.869 620.624 665.373 620.624C651.877 620.624 640.937 609.687 640.937 596.194C640.937 582.702 651.877 571.765 665.373 571.765C678.869 571.765 689.809 582.702 689.809 596.194Z" fill="#FF9A99"/>
<path d="M753.022 465.432C753.022 477.797 742.994 487.822 730.626 487.822C718.257 487.822 708.229 477.797 708.229 465.432C708.229 453.066 718.257 443.042 730.626 443.042C742.994 443.042 753.022 453.066 753.022 465.432Z" fill="#FF9A99"/>
<path d="M556.505 269.339C556.505 281.8 546.401 291.901 533.937 291.901C521.471 291.901 511.367 281.8 511.367 269.339C511.367 256.878 521.471 246.776 533.937 246.776C546.401 246.776 556.505 256.878 556.505 269.339Z" fill="#FF9A99"/>
<path d="M752.27 399.849C752.27 411.806 742.574 421.5 730.613 421.5C718.652 421.5 708.956 411.806 708.956 399.849C708.956 387.891 718.652 378.197 730.613 378.197C742.574 378.197 752.27 387.891 752.27 399.849Z" fill="#FF9A99"/>
<path d="M686.676 727.379C686.676 739.128 677.148 748.654 665.396 748.654C653.642 748.654 644.114 739.128 644.114 727.379C644.114 715.628 653.642 706.103 665.396 706.103C677.148 706.103 686.676 715.628 686.676 727.379Z" fill="#FF9A99"/>
<path d="M752.692 596.223C752.692 608.438 742.786 618.342 730.566 618.342C718.347 618.342 708.441 608.438 708.441 596.223C708.441 584.006 718.347 574.103 730.566 574.103C742.786 574.103 752.692 584.006 752.692 596.223Z" fill="#FF9A99"/>
<path d="M359.889 726.898C359.889 739.142 349.96 749.069 337.713 749.069C325.464 749.069 315.536 739.142 315.536 726.898C315.536 714.653 325.464 704.728 337.713 704.728C349.96 704.728 359.889 714.653 359.889 726.898Z" fill="#FF9A99"/>
<path d="M294.262 661.807C294.262 674.022 284.357 683.926 272.137 683.926C259.919 683.926 250.013 674.022 250.013 661.807C250.013 649.59 259.919 639.687 272.137 639.687C284.357 639.687 294.262 649.59 294.262 661.807Z" fill="#FF9A99"/>
<path d="M749.948 727.631C749.948 738.311 741.29 746.967 730.609 746.967C719.927 746.967 711.269 738.311 711.269 727.631C711.269 716.953 719.927 708.297 730.609 708.297C741.29 708.297 749.948 716.953 749.948 727.631Z" fill="#FF9A99"/>
<path d="M749.175 269.068C749.175 279.102 741.037 287.237 731.001 287.237C720.964 287.237 712.826 279.102 712.826 269.068C712.826 259.034 720.964 250.898 731.001 250.898C741.037 250.898 749.175 259.034 749.175 269.068Z" fill="#FF9A99"/>
<path d="M622.617 727.409C622.617 739.997 612.408 750.203 599.816 750.203C587.223 750.203 577.015 739.997 577.015 727.409C577.015 714.819 587.223 704.613 599.816 704.613C612.408 704.613 622.617 714.819 622.617 727.409Z" fill="#FF9A99"/>
<path d="M812.671 727.381C812.671 736.597 805.198 744.069 795.978 744.069C786.759 744.069 779.285 736.597 779.285 727.381C779.285 718.164 786.759 710.692 795.978 710.692C805.198 710.692 812.671 718.164 812.671 727.381Z" fill="#FF9A99"/>
<path d="M876.846 661.797C876.846 670.142 870.079 676.908 861.732 676.908C853.383 676.908 846.616 670.142 846.616 661.797C846.616 653.45 853.383 646.685 861.732 646.685C870.079 646.685 876.846 653.45 876.846 661.797Z" fill="#FF9A99"/>
<path d="M744.585 858.166C744.585 865.899 738.314 872.167 730.58 872.167C722.846 872.167 716.575 865.899 716.575 858.166C716.575 850.434 722.846 844.166 730.58 844.166C738.314 844.166 744.585 850.434 744.585 858.166Z" fill="#FF9A99"/>
<path d="M226.7 661.808C226.7 672.71 217.86 681.549 206.954 681.549C196.049 681.549 187.207 672.71 187.207 661.808C187.207 650.905 196.049 642.066 206.954 642.066C217.86 642.066 226.7 650.905 226.7 661.808Z" fill="#FF9A99"/>
<path d="M815.674 596.09C815.674 606.925 806.889 615.708 796.052 615.708C785.215 615.708 776.429 606.925 776.429 596.09C776.429 585.255 785.215 576.473 796.052 576.473C806.889 576.473 815.674 585.255 815.674 596.09Z" fill="#FF9A99"/>
<path d="M483.281 923.746C483.281 931.891 476.676 938.494 468.529 938.494C460.381 938.494 453.776 931.891 453.776 923.746C453.776 915.6 460.381 908.997 468.529 908.997C476.676 908.997 483.281 915.6 483.281 923.746Z" fill="#FF9A99"/>
<path d="M878.131 465.48C878.131 474.585 870.749 481.967 861.64 481.967C852.533 481.967 845.149 474.585 845.149 465.48C845.149 456.375 852.533 448.994 861.64 448.994C870.749 448.994 878.131 456.375 878.131 465.48Z" fill="#FF9A99"/>
<path d="M350.98 923.747C350.98 931.048 345.06 936.967 337.757 936.967C330.454 936.967 324.534 931.048 324.534 923.747C324.534 916.447 330.454 910.529 337.757 910.529C345.06 910.529 350.98 916.447 350.98 923.747Z" fill="#FF9A99"/>
<path d="M159.22 596.092C159.22 605.973 151.206 613.984 141.322 613.984C131.438 613.984 123.425 605.973 123.425 596.092C123.425 586.21 131.438 578.2 141.322 578.2C151.206 578.2 159.22 586.21 159.22 596.092Z" fill="#FF9A99"/>
<path d="M740.67 923.741C740.67 929.289 736.173 933.786 730.624 933.786C725.075 933.786 720.577 929.289 720.577 923.741C720.577 918.195 725.075 913.698 730.624 913.698C736.173 913.698 740.67 918.195 740.67 923.741Z" fill="#FF9A99"/>
<path d="M815.019 400.009C815.019 410.459 806.545 418.931 796.093 418.931C785.639 418.931 777.165 410.459 777.165 400.009C777.165 389.558 785.639 381.087 796.093 381.087C806.545 381.087 815.019 389.558 815.019 400.009Z" fill="#FF9A99"/>
<path d="M684.35 792.713C684.35 803.164 675.876 811.637 665.422 811.637C654.968 811.637 646.493 803.164 646.493 792.713C646.493 782.262 654.968 773.79 665.422 773.79C675.876 773.79 684.35 782.262 684.35 792.713Z" fill="#FF9A99"/>
<path d="M544.153 988.998C544.153 994.552 539.651 999.052 534.096 999.052C528.542 999.052 524.039 994.552 524.039 988.998C524.039 983.446 528.542 978.944 534.096 978.944C539.651 978.944 544.153 983.446 544.153 988.998Z" fill="#FF9A99"/>
<path d="M872.627 792.595C872.627 798.579 867.775 803.432 861.789 803.432C855.802 803.432 850.949 798.579 850.949 792.595C850.949 786.609 855.802 781.758 861.789 781.758C867.775 781.758 872.627 786.609 872.627 792.595Z" fill="#FF9A99"/>
<path d="M608.716 988.938C608.716 993.86 604.726 997.85 599.802 997.85C594.879 997.85 590.889 993.86 590.889 988.938C590.889 984.016 594.879 980.027 599.802 980.027C604.726 980.027 608.716 984.016 608.716 988.938Z" fill="#FF9A99"/>
<path d="M747.643 792.592C747.643 801.982 740.029 809.594 730.636 809.594C721.244 809.594 713.63 801.982 713.63 792.592C713.63 783.201 721.244 775.589 730.636 775.589C740.029 775.589 747.643 783.201 747.643 792.592Z" fill="#FF9A99"/>
<path d="M352.847 137.92C352.847 146.278 346.068 153.055 337.707 153.055C329.347 153.055 322.568 146.278 322.568 137.92C322.568 129.56 329.347 122.784 337.707 122.784C346.068 122.784 352.847 129.56 352.847 137.92Z" fill="#FF9A99"/>
<path d="M228.304 530.629C228.304 542.408 218.752 551.958 206.969 551.958C195.187 551.958 185.636 542.408 185.636 530.629C185.636 518.849 195.187 509.3 206.969 509.3C218.752 509.3 228.304 518.849 228.304 530.629Z" fill="#FF9A99"/>
<path d="M997.169 661.796C997.169 664.473 994.999 666.643 992.323 666.643C989.645 666.643 987.477 664.473 987.477 661.796C987.477 659.121 989.645 656.951 992.323 656.951C994.999 656.951 997.169 659.121 997.169 661.796Z" fill="#FF9A99"/>
<path d="M808.962 203.502C808.962 210.589 803.216 216.334 796.128 216.334C789.038 216.334 783.293 210.589 783.293 203.502C783.293 196.416 789.038 190.672 796.128 190.672C803.216 190.672 808.962 196.416 808.962 203.502Z" fill="#FF9A99"/>
<path d="M139.611 919.825C139.611 919.826 139.61 919.828 139.608 919.828C139.606 919.828 139.604 919.826 139.604 919.825C139.604 919.823 139.606 919.822 139.608 919.822C139.61 919.822 139.611 919.823 139.611 919.825Z" fill="#FF9A99"/>
<path d="M145.631 921.573C145.631 923.174 144.333 924.472 142.732 924.472C141.131 924.472 139.834 923.174 139.834 921.573C139.834 919.973 141.131 918.676 142.732 918.676C144.333 918.676 145.631 919.973 145.631 921.573Z" fill="#FF9A99"/>
</g>
</mask>
<g mask="url(#mask0_28_239)">
<rect width="1000" height="1000" fill="url(#paint0_radial_28_239)"/>
</g>
<defs>
<radialGradient id="paint0_radial_28_239" cx="0" cy="0" r="1" gradientUnits="userSpaceOnUse" gradientTransform="translate(500 500) rotate(90) scale(500)">
<stop stop-color="#ABBDE3"/>
<stop offset="0.432692" stop-color="#ABBDE3" stop-opacity="0.5"/>
<stop offset="0.990385" stop-color="#ABBDE3" stop-opacity="0"/>
</radialGradient>
<clipPath id="clip0_28_239">
<rect width="1000" height="1000" fill="white"/>
</clipPath>
</defs>
</svg>
